<svg width="1000" height="340" viewBox="0 0 1000 340" fill="none" xmlns="http://www.w3.org/2000/svg">
<path d="M515.509 325.485L450.393 287.657C446.479 285.388 446.968 281.43 451.483 278.828L508.637 256.833C513.174 254.209 520.024 253.942 523.938 256.189L567.704 281.83C571.618 284.099 571.129 288.057 566.614 290.659L530.81 324.818C526.295 327.465 519.445 327.731 515.509 325.485Z" fill="#D1EBFF"/>
<path d="M512.396 320.526L454.93 287.145C453.396 286.256 452.617 285.077 452.595 283.832C452.595 283.787 452.595 277.116 452.595 277.071C452.617 275.559 453.752 278.183 455.909 276.938L506.347 257.545C510.35 255.232 516.377 254.988 519.846 256.989L558.475 279.606C559.632 280.273 560.477 277.449 560.766 278.339C560.855 278.628 560.81 285.01 560.81 285.322C560.833 286.878 559.721 288.524 557.497 289.792L525.917 319.948C521.892 322.283 515.843 322.528 512.396 320.526Z" fill="#D1EBFF"/>
<path d="M518.245 322.706C515.821 322.706 513.597 322.194 511.973 321.238L454.508 287.857C452.773 286.856 451.794 285.411 451.75 283.832C451.75 283.809 451.75 277.093 451.75 277.027C451.772 275.848 452.551 275.759 452.773 275.759C453.107 275.759 453.373 275.915 453.663 276.07C454.152 276.359 454.752 276.626 455.464 276.226L506.013 256.767C509.883 254.521 516.643 254.187 520.224 256.255L558.853 278.895C558.92 278.828 559.231 278.405 559.387 278.205C559.72 277.76 560.032 277.338 560.566 277.338C560.721 277.338 561.277 277.382 561.522 278.094C561.589 278.316 561.633 278.45 561.611 284.388C561.611 284.899 561.611 285.255 561.611 285.322C561.655 287.256 560.299 289.147 557.897 290.548L526.473 320.571C524.094 321.972 521.158 322.706 518.245 322.706ZM453.418 277.849C453.418 279.673 453.418 283.676 453.418 283.832C453.44 284.832 454.107 285.722 455.331 286.434L512.796 319.814C515.865 321.594 521.87 321.327 525.472 319.258L556.896 289.236C558.92 288.035 559.965 286.678 559.943 285.388C559.943 285.322 559.943 284.944 559.943 284.41C559.943 283.543 559.965 281.541 559.943 280.118C559.431 280.54 558.675 280.763 558.008 280.385L519.379 257.768C516.31 256.011 510.305 256.255 506.725 258.324L456.176 277.783C455.397 278.205 454.152 278.161 453.418 277.849Z" fill="#03336E"/>
<path d="M512.396 313.854L454.93 280.474C451.461 278.472 451.906 274.981 455.909 272.668L506.347 253.275C510.35 250.962 516.376 250.718 519.846 252.719L558.475 275.336C561.944 277.338 561.499 280.829 557.496 283.142L525.917 313.298C521.892 315.611 515.843 315.856 512.396 313.854Z" fill="white"/>
<path d="M518.245 316.056C515.821 316.056 513.597 315.545 511.951 314.588L454.485 281.207C452.706 280.184 451.728 278.717 451.728 277.093C451.728 275.203 453.084 273.335 455.442 271.956L505.991 252.497C509.861 250.251 516.621 249.917 520.202 251.985L558.831 274.625C560.61 275.648 561.589 277.115 561.589 278.739C561.589 280.629 560.232 282.497 557.875 283.876L526.451 313.899C524.094 315.3 521.158 316.056 518.245 316.056ZM513.953 252.23C511.351 252.23 508.704 252.875 506.725 254.031L456.176 273.491C454.463 274.491 453.396 275.848 453.396 277.116C453.396 278.405 454.441 279.273 455.308 279.784L512.774 313.165C515.843 314.944 521.847 314.677 525.45 312.609L556.874 282.586C558.875 281.408 559.921 280.073 559.921 278.783C559.921 277.494 558.875 276.626 558.008 276.115L519.379 253.475C518.022 252.653 516.087 252.23 513.953 252.23Z" fill="#03336E"/>
<path d="M554.984 276.737L518.689 255.477C515.442 253.609 509.749 253.831 505.991 256.011L482.106 265.195C482.329 265.373 482.573 265.551 482.84 265.707L536.836 297.064C537.593 297.486 538.46 297.82 539.416 298.02L554.027 284.076C557.83 281.875 558.23 278.605 554.984 276.737Z" fill="#D1EBFF"/>
<path d="M601.53 315.7L445.278 225.41C437.295 220.806 430.823 208.419 430.823 197.767V78.2763C430.823 67.6238 437.295 62.7313 445.278 67.3347L601.53 157.625C609.513 162.229 615.985 174.616 615.985 185.268V304.759C616.007 315.411 609.536 320.326 601.53 315.7Z" fill="white"/>
<path d="M607.29 318.28C605.332 318.28 603.264 317.657 601.129 316.434L444.878 226.144C436.672 221.407 430 208.686 430 197.789V78.2764C430 70.0702 433.758 64.7773 439.563 64.7773C441.52 64.7773 443.588 65.4 445.723 66.6231L601.974 156.914C610.181 161.65 616.852 174.371 616.852 185.268V304.759C616.83 312.965 613.094 318.28 607.29 318.28ZM439.541 66.4452C434.759 66.4452 431.646 71.0932 431.646 78.2764V197.767C431.646 208.13 437.939 220.206 445.701 224.676L601.952 314.966C603.82 316.034 605.599 316.59 607.267 316.59C612.049 316.59 615.162 311.942 615.162 304.759V185.268C615.162 174.905 608.868 162.829 601.107 158.359L444.856 68.0687C443.01 67.0012 441.208 66.4452 439.541 66.4452Z" fill="#03336E"/>
<path d="M603.397 307.383L449.348 218.382C442.921 214.29 438.94 206.128 438.94 197.789V77.498C438.94 75.5187 441.097 74.2956 442.81 75.2963C443.01 75.4075 443.165 75.4965 443.254 75.5632L597.46 164.675C605.11 169.078 607.868 176.929 607.868 185.268V305.181C607.868 307.294 605.577 308.628 603.731 307.583C603.598 307.494 603.486 307.427 603.397 307.383Z" fill="white"/>
<path d="M605.11 308.784C604.487 308.784 603.887 308.628 603.331 308.317L603.086 308.183L448.948 219.138C442.365 214.957 438.117 206.596 438.117 197.811V77.498C438.117 75.6299 439.652 74.0954 441.52 74.0954C442.12 74.0954 442.721 74.2511 443.232 74.5624L443.677 74.8293L597.882 163.941C604.954 168.011 608.713 175.394 608.713 185.268V305.181C608.713 307.16 607.089 308.784 605.11 308.784ZM441.52 75.7633C440.675 75.7633 439.785 76.4305 439.785 77.498V197.789C439.785 206.017 443.721 213.823 449.793 217.693L604.131 306.871C605.288 307.516 607.023 306.805 607.023 305.203V185.268C607.023 178.819 605.288 170.146 597.037 165.387L442.543 76.0969C442.12 75.8523 441.831 75.7633 441.52 75.7633Z" fill="#03336E"/>
<path d="M610.714 152.844L454.463 62.5534C451.305 60.7298 448.37 60.3962 445.99 61.308C445.679 61.4192 436.583 66.1783 436.294 66.334C436.294 66.334 436.271 66.334 436.271 66.3563C438.74 65.1554 441.876 65.3777 445.278 67.357L601.53 157.647C609.514 162.251 615.985 174.638 615.985 185.291V304.781C615.985 311.43 613.472 315.834 609.625 317.079C609.936 317.101 610.336 316.968 610.892 316.656C611.07 316.545 620.522 311.475 620.7 311.341C623.457 309.407 625.148 305.47 625.148 299.999V180.487C625.17 169.834 618.698 157.47 610.714 152.844Z" fill="#D1EBFF"/>
<path d="M609.691 317.902C609.669 317.902 609.602 317.902 609.58 317.902C609.18 317.88 608.846 317.568 608.802 317.168C608.757 316.768 608.98 316.39 609.38 316.256C613.005 315.077 615.162 310.763 615.162 304.736V185.268C615.162 174.905 608.868 162.829 601.107 158.359L444.856 68.0686C441.831 66.3118 438.94 65.9782 436.627 67.1124C436.227 67.3125 435.715 67.1568 435.515 66.7343C435.315 66.3118 435.471 65.8225 435.893 65.6223C435.96 65.5779 445.278 60.7075 445.678 60.5519C448.369 59.5066 451.594 59.9514 454.863 61.8417L611.115 152.132C619.321 156.869 625.993 169.59 625.993 180.487V299.977C625.993 305.559 624.28 309.829 621.167 312.008C621.056 312.075 620.322 312.498 613.628 316.1C612.338 316.79 611.359 317.324 611.27 317.368C610.67 317.746 610.181 317.902 609.691 317.902ZM440.897 64.8885C442.454 65.1108 444.055 65.6891 445.701 66.6231L601.952 156.914C610.158 161.65 616.83 174.371 616.83 185.268V304.759C616.83 308.272 616.141 311.275 614.873 313.543C617.275 312.253 620.055 310.741 620.277 310.607C622.857 308.806 624.347 304.914 624.347 299.955V180.487C624.347 170.124 618.053 158.048 610.292 153.578L454.04 63.2873C451.216 61.6638 448.503 61.2413 446.301 62.1086C446.079 62.1975 443.388 63.5986 440.897 64.8885Z" fill="#03336E"/>
<path d="M563.211 173.192L467.672 117.417C458.643 112.213 451.327 117.728 451.327 129.782V160.138C451.327 172.169 458.643 186.158 467.672 191.384L515.531 218.76L528.051 255.61L540.572 233.216L563.233 247.159C572.262 252.363 579.579 246.848 579.579 234.795V204.416C579.557 192.385 572.24 178.396 563.211 173.192Z" fill="white"/>
<path d="M528.051 256.411C528.029 256.411 528.007 256.411 527.985 256.411C527.651 256.389 527.384 256.166 527.273 255.855L514.864 219.294L467.272 192.073C458.021 186.736 450.504 172.392 450.504 160.116V129.76C450.504 120.553 454.707 114.615 461.201 114.615C463.403 114.615 465.715 115.304 468.117 116.683L563.656 172.459C572.908 177.796 580.424 192.14 580.424 204.416V234.772C580.424 239.287 579.424 243.09 577.511 245.781C575.598 248.494 572.908 249.939 569.727 249.939C567.526 249.939 565.191 249.25 562.811 247.871L540.883 234.372L528.785 256.011C528.63 256.255 528.34 256.411 528.051 256.411ZM461.179 116.283C455.708 116.283 452.15 121.576 452.15 129.76V160.116C452.15 171.88 459.288 185.557 468.073 190.628L515.931 218.004C516.109 218.115 516.242 218.271 516.309 218.471L528.229 253.542L539.816 232.793C539.927 232.593 540.105 232.459 540.327 232.393C540.55 232.348 540.772 232.371 540.972 232.482L563.634 246.426C565.747 247.649 567.793 248.271 569.683 248.271C572.285 248.271 574.509 247.071 576.11 244.824C577.822 242.423 578.712 238.953 578.712 234.795V204.416C578.712 192.652 571.573 178.975 562.789 173.904L467.25 118.129C465.115 116.905 463.069 116.283 461.179 116.283Z" fill="#03336E"/>
<path d="M545.643 236.129L540.55 233.193L528.052 255.588L538.081 249.672L545.643 236.129Z" fill="#D1EBFF"/>
<path d="M528.051 256.411C527.829 256.411 527.629 256.322 527.473 256.166C527.206 255.899 527.14 255.499 527.34 255.166L539.86 232.771C539.972 232.571 540.149 232.437 540.372 232.371C540.594 232.304 540.817 232.348 541.017 232.459L546.11 235.395C546.51 235.617 546.643 236.129 546.421 236.529L538.86 250.073C538.793 250.206 538.682 250.317 538.548 250.384L528.496 256.3C528.34 256.389 528.185 256.411 528.051 256.411ZM540.861 234.328L530.275 253.297L537.458 249.05L544.508 236.44L540.861 234.328Z" fill="#03336E"/>
<path d="M571.64 168.233L476.101 112.458C472.231 110.234 468.695 109.967 465.893 111.346L465.804 111.257L456.864 116.505L456.886 116.616C459.755 114.904 463.536 115.015 467.672 117.395L563.211 173.17C572.24 178.374 579.557 192.363 579.557 204.416V234.772C579.557 240.621 577.822 244.913 574.998 247.204L579.98 243.913C584.16 241.511 587.986 237.775 587.986 229.813V199.479C587.986 187.448 580.669 173.459 571.64 168.233Z" fill="#D1EBFF"/>
<path d="M574.998 248.049C574.731 248.049 574.486 247.938 574.331 247.715C574.064 247.36 574.131 246.848 574.486 246.581C577.222 244.357 578.734 240.154 578.734 234.795V204.416C578.734 192.652 571.595 178.975 562.811 173.904L467.272 118.129C463.58 115.994 460.067 115.727 457.331 117.35C457.109 117.484 456.842 117.506 456.597 117.417C456.353 117.328 456.175 117.128 456.108 116.883C455.997 116.505 456.108 116.016 456.442 115.816L465.382 110.567C465.537 110.478 465.738 110.434 465.916 110.456C468.985 109.122 472.721 109.567 476.524 111.768L572.062 167.544C581.314 172.881 588.831 187.225 588.831 199.501V229.858C588.831 238.82 584.027 242.6 580.424 244.669L575.487 247.916C575.309 248.005 575.154 248.049 574.998 248.049ZM461.69 114.637C463.736 114.726 465.871 115.416 468.073 116.683L563.612 172.459C572.863 177.796 580.38 192.14 580.38 204.416V234.772C580.38 238.308 579.757 241.4 578.578 243.846L579.512 243.223C583.093 241.177 587.14 237.819 587.14 229.813V199.479C587.14 187.715 580.002 174.038 571.217 168.967L475.678 113.192C472.209 111.19 468.896 110.812 466.249 112.124C466.116 112.191 465.982 112.213 465.849 112.213L461.69 114.637Z" fill="#03336E"/>
<path d="M495.73 177.391C498.836 175.574 498.807 169.744 495.664 164.368C492.522 158.992 487.455 156.107 484.348 157.923C481.242 159.739 481.271 165.569 484.414 170.945C487.557 176.321 492.623 179.207 495.73 177.391Z" fill="#0FBAB8"/>
<path d="M493.625 178.797C492.358 178.797 491.001 178.396 489.622 177.596C484.974 174.927 481.216 168.411 481.216 163.074C481.216 159.137 483.262 156.58 486.464 156.58C487.732 156.58 489.088 156.98 490.467 157.781C495.115 160.45 498.874 166.966 498.874 172.281C498.874 176.239 496.805 178.797 493.625 178.797ZM486.442 158.248C484.196 158.248 482.862 160.049 482.862 163.074C482.862 167.877 486.264 173.726 490.445 176.15C491.557 176.795 492.669 177.129 493.625 177.129C495.871 177.129 497.206 175.327 497.206 172.303C497.206 167.499 493.803 161.65 489.622 159.226C488.51 158.581 487.398 158.248 486.442 158.248Z" fill="#03336E"/>
<path d="M523.048 186.781C523.048 191.851 519.467 193.897 515.064 191.34C510.638 188.782 507.08 182.622 507.08 177.551C507.08 172.481 510.661 170.435 515.064 172.992C519.467 175.55 523.048 181.732 523.048 186.781Z" fill="#0FBAB8"/>
<path d="M518.644 193.274C517.377 193.274 516.02 192.874 514.641 192.073C509.993 189.405 506.235 182.889 506.235 177.574C506.235 173.637 508.281 171.08 511.483 171.08C512.751 171.08 514.107 171.48 515.486 172.281C520.134 174.949 523.893 181.465 523.893 186.803C523.893 190.739 521.824 193.274 518.644 193.274ZM511.461 172.725C509.215 172.725 507.881 174.527 507.881 177.551C507.881 182.355 511.283 188.204 515.464 190.628C516.576 191.273 517.688 191.606 518.644 191.606C520.89 191.606 522.225 189.805 522.225 186.781C522.225 181.977 518.822 176.128 514.641 173.704C513.529 173.081 512.417 172.725 511.461 172.725Z" fill="#03336E"/>
<path d="M547.488 200.68C547.488 205.75 543.908 207.796 539.504 205.239C535.079 202.681 531.521 196.521 531.521 191.451C531.521 186.38 535.101 184.334 539.504 186.892C543.908 189.449 547.488 195.632 547.488 200.68Z" fill="#0FBAB8"/>
<path d="M543.085 207.174C541.817 207.174 540.461 206.773 539.082 205.973C534.434 203.304 530.676 196.788 530.676 191.473C530.676 187.537 532.721 184.979 535.924 184.979C537.192 184.979 538.548 185.379 539.927 186.18C544.575 188.849 548.333 195.365 548.333 200.702C548.311 204.638 546.265 207.174 543.085 207.174ZM535.902 186.647C533.656 186.647 532.321 188.448 532.321 191.473C532.321 196.277 535.724 202.125 539.905 204.55C541.017 205.194 542.129 205.528 543.085 205.528C545.331 205.528 546.665 203.727 546.665 200.702C546.665 195.899 543.263 190.05 539.082 187.626C537.948 186.981 536.858 186.647 535.902 186.647Z" fill="#03336E"/>
<path d="M365.682 288.751L425.238 254.369C431.954 250.5 431.109 243.717 423.347 239.225L283.308 158.363C275.547 153.893 263.805 153.404 257.088 157.274L197.532 191.677C190.816 195.547 191.661 202.33 199.423 206.822L339.484 287.661C347.245 292.153 358.965 292.643 365.682 288.751Z" fill="#D1EBFF"/>
<path d="M362.679 283.88L419.522 251.056C422.391 249.41 423.814 247.186 423.859 244.873C423.859 244.673 423.859 237.979 423.836 237.779C423.592 235.088 421.546 236.578 417.743 234.376L284.086 157.207C276.681 152.937 265.495 152.47 259.068 156.162L202.202 189.009C199.333 190.654 197.91 187.763 197.866 190.076C197.866 190.276 197.866 197.815 197.888 198.016C198.11 200.707 200.179 203.486 203.981 205.688L337.638 282.857C345.066 287.127 356.252 287.594 362.679 283.88Z" fill="#D1EBFF"/>
<path d="M351.804 287.216C346.556 287.216 341.241 285.882 337.238 283.569L203.581 206.4C199.645 204.131 197.332 201.174 197.065 198.082C197.043 197.793 197.043 190.121 197.043 190.054C197.065 188.608 197.755 188.297 198.333 188.297C198.622 188.297 198.889 188.386 199.2 188.475C199.89 188.697 200.846 188.831 201.802 188.275L258.623 155.472C261.536 153.782 265.539 152.87 269.898 152.87C275.146 152.87 280.439 154.205 284.465 156.518L418.121 233.687C419.611 234.554 420.79 234.799 421.746 234.999C423.125 235.288 424.437 235.577 424.637 237.734C424.659 238.024 424.659 244.851 424.659 244.918C424.615 247.609 422.925 250.055 419.922 251.812L363.08 284.614C360.166 286.305 356.163 287.216 351.804 287.216ZM198.711 190.098C198.711 190.454 198.711 197.638 198.733 197.971C198.956 200.44 201.024 202.997 204.426 204.954L338.083 282.124C341.841 284.303 346.867 285.548 351.804 285.548C355.874 285.548 359.588 284.703 362.257 283.169L419.1 250.344C421.59 248.898 422.969 246.964 423.014 244.873C423.014 244.473 423.014 238.157 422.991 237.846C422.902 236.934 422.747 236.889 421.412 236.623C420.389 236.4 419.011 236.111 417.298 235.133L283.642 157.963C279.883 155.784 274.857 154.538 269.898 154.538C265.828 154.538 262.114 155.383 259.446 156.918L202.625 189.743C201.202 190.566 199.578 190.365 198.711 190.098Z" fill="#03336E"/>
<path d="M362.679 276.786L419.522 243.961C425.927 240.27 425.126 233.798 417.721 229.528L284.064 152.359C276.659 148.089 265.45 147.622 259.045 151.336L202.202 184.138C195.797 187.83 196.598 194.302 204.004 198.572L337.66 275.741C345.066 280.033 356.252 280.5 362.679 276.786Z" fill="white"/>
<path d="M351.804 280.122C346.556 280.122 341.241 278.788 337.238 276.475L203.581 199.305C199.423 196.904 197.043 193.657 197.043 190.41C197.043 187.674 198.733 185.184 201.78 183.427L258.623 150.602C261.536 148.934 265.561 148 269.92 148C275.169 148 280.462 149.334 284.487 151.647L418.143 228.817C422.302 231.218 424.682 234.465 424.682 237.712C424.682 240.448 422.991 242.938 419.945 244.718L363.08 277.52C360.166 279.188 356.163 280.122 351.804 280.122ZM269.92 149.668C265.851 149.668 262.137 150.513 259.468 152.048L202.625 184.872C200.112 186.318 198.711 188.297 198.711 190.432C198.711 193.079 200.801 195.792 204.426 197.882L338.083 275.052C341.841 277.231 346.867 278.476 351.827 278.476C355.896 278.476 359.61 277.631 362.279 276.097L419.122 243.272C421.635 241.826 423.036 239.847 423.036 237.712C423.036 235.066 420.945 232.353 417.321 230.262L283.664 153.093C279.883 150.913 274.857 149.668 269.92 149.668Z" fill="#03336E"/>
<path d="M262.604 154.983C267.029 152.426 274.212 152.403 278.616 154.961L413.229 232.686C417.632 235.222 417.61 239.358 413.184 241.938L359.121 273.139C354.696 275.697 347.512 275.719 343.109 273.161L208.496 195.436C204.093 192.901 204.115 188.764 208.541 186.184L262.604 154.983Z" fill="white"/>
<path d="M351.07 275.897C347.913 275.897 344.932 275.185 342.686 273.895L208.074 196.17C205.694 194.791 204.36 192.901 204.36 190.855C204.36 188.786 205.694 186.874 208.118 185.495L262.159 154.294C264.427 152.982 267.452 152.248 270.632 152.248C273.79 152.248 276.77 152.959 279.016 154.249L413.629 231.975C416.008 233.353 417.343 235.244 417.343 237.29C417.343 239.358 416.008 241.271 413.584 242.649L359.544 273.851C357.253 275.163 354.251 275.897 351.07 275.897ZM270.654 153.893C267.763 153.893 265.05 154.538 263.026 155.717L208.963 186.918C207.073 188.008 206.05 189.409 206.05 190.855C206.05 192.278 207.073 193.657 208.919 194.724L343.531 272.45C345.533 273.606 348.202 274.229 351.07 274.229C353.962 274.229 356.675 273.584 358.698 272.405L412.739 241.204C414.63 240.114 415.653 238.713 415.653 237.29C415.653 235.866 414.63 234.488 412.784 233.42L278.193 155.695C276.192 154.538 273.501 153.893 270.654 153.893Z" fill="#03336E"/>
<path d="M278.193 212.315C281.485 214.206 281.507 217.275 278.238 219.165C274.969 221.055 269.654 221.033 266.362 219.143C263.071 217.252 263.049 214.183 266.318 212.293C269.587 210.403 274.902 210.403 278.193 212.315Z" fill="#0FBAB8"/>
<path d="M272.322 221.411C269.92 221.411 267.652 220.855 265.94 219.877C264.072 218.809 263.049 217.319 263.049 215.718C263.049 214.117 264.072 212.649 265.895 211.581C269.298 209.602 275.169 209.624 278.594 211.604C280.462 212.671 281.485 214.161 281.485 215.762C281.485 217.363 280.462 218.831 278.638 219.899C276.948 220.855 274.702 221.411 272.322 221.411ZM272.211 211.715C270.121 211.715 268.186 212.182 266.74 213.005C265.428 213.761 264.717 214.717 264.717 215.696C264.717 216.674 265.45 217.653 266.785 218.409C269.72 220.099 274.902 220.121 277.815 218.431C279.127 217.675 279.839 216.719 279.839 215.74C279.839 214.762 279.105 213.783 277.771 213.027C276.303 212.182 274.324 211.715 272.211 211.715Z" fill="#03336E"/>
<path d="M221.706 189.943C221.373 190.121 221.106 190.343 220.794 190.521L226.754 193.968C227.066 193.768 227.355 193.568 227.666 193.39C252.129 179.268 292.048 179.335 316.667 193.546C316.734 193.59 316.8 193.634 316.867 193.657L322.76 190.254C322.694 190.21 322.649 190.165 322.56 190.143C294.672 174.02 249.416 173.931 221.706 189.943Z" fill="#0FBAB8"/>
<path d="M226.732 194.791C226.576 194.791 226.443 194.746 226.31 194.68L220.35 191.233C220.083 191.077 219.927 190.81 219.927 190.521C219.927 190.232 220.083 189.943 220.327 189.809C220.461 189.72 220.594 189.631 220.728 189.565C220.906 189.454 221.083 189.342 221.261 189.231C234.738 181.448 252.685 177.178 271.811 177.178C291.114 177.178 309.283 181.536 322.96 189.431C323.227 189.587 323.472 189.921 323.472 190.21C323.472 190.499 323.405 190.855 323.138 190.988L317.223 194.413C316.978 194.569 316.645 194.569 316.4 194.413L316.2 194.279C304.369 187.452 288.623 183.694 271.855 183.694C255.243 183.694 239.675 187.408 228.022 194.124C227.866 194.213 227.711 194.324 227.555 194.413C227.399 194.502 227.266 194.613 227.11 194.702C227.043 194.769 226.888 194.791 226.732 194.791ZM222.396 190.499L226.71 192.99C226.888 192.878 227.043 192.767 227.244 192.656C239.142 185.784 254.998 182.003 271.9 182.003C288.846 182.003 304.791 185.806 316.867 192.7L321.092 190.254C307.793 182.893 290.358 178.823 271.855 178.823C253.13 178.823 235.583 182.96 222.396 190.499Z" fill="#03336E"/>
<path d="M245.502 203.687C245.168 203.887 244.946 204.109 244.635 204.309L250.595 207.756C250.906 207.556 251.128 207.334 251.462 207.134C262.871 200.551 281.507 200.573 293.004 207.2C293.071 207.245 293.116 207.289 293.182 207.334L299.098 203.909C299.031 203.864 298.987 203.82 298.92 203.775C284.131 195.258 260.18 195.213 245.502 203.687Z" fill="#0FBAB8"/>
<path d="M250.595 208.579C250.461 208.579 250.306 208.535 250.172 208.468L244.212 205.021C243.967 204.865 243.79 204.598 243.79 204.309C243.79 204.02 243.945 203.753 244.19 203.598C244.301 203.531 244.412 203.442 244.523 203.353C244.701 203.22 244.879 203.086 245.079 202.953C252.263 198.794 261.848 196.526 272.033 196.526C282.33 196.526 292.004 198.838 299.298 203.064C299.343 203.086 299.454 203.175 299.476 203.197C299.743 203.353 299.899 203.62 299.899 203.909C299.899 204.198 299.743 204.487 299.476 204.621L293.583 208.045C293.316 208.201 293.005 208.201 292.738 208.045L293.071 207.267L292.537 207.912C287.111 204.776 279.839 203.042 272.078 203.042C264.405 203.042 257.222 204.754 251.84 207.845C251.684 207.934 251.573 208.023 251.44 208.112C251.306 208.223 251.151 208.334 250.995 208.423C250.906 208.535 250.75 208.579 250.595 208.579ZM246.214 204.243L250.55 206.733C250.706 206.622 250.862 206.489 251.062 206.377C256.666 203.153 264.138 201.374 272.1 201.374C280.039 201.374 287.511 203.153 293.182 206.355L297.408 203.909C290.492 200.217 281.551 198.194 272.033 198.194C262.292 198.194 253.13 200.351 246.214 204.243Z" fill="#03336E"/>
<path d="M233.604 196.815C233.271 197.015 233.004 197.215 232.692 197.393L238.652 200.84C238.964 200.64 239.253 200.44 239.564 200.262C257.489 189.898 286.778 189.965 304.836 200.373C304.903 200.417 304.969 200.462 305.036 200.484L310.952 197.059C310.885 197.015 310.84 196.97 310.751 196.948C289.402 184.628 254.798 184.583 233.604 196.815Z" fill="#0FBAB8"/>
<path d="M238.63 201.663C238.497 201.663 238.341 201.618 238.208 201.552L232.247 198.105C232.003 197.949 231.825 197.682 231.825 197.393C231.825 197.104 231.981 196.815 232.225 196.681L232.603 196.437C232.781 196.325 232.959 196.192 233.159 196.081C243.5 190.121 257.266 186.829 271.922 186.829C286.711 186.829 300.632 190.165 311.129 196.214C311.396 196.37 311.641 196.703 311.641 196.993C311.641 197.282 311.574 197.638 311.329 197.771L305.414 201.196C305.147 201.351 304.836 201.351 304.569 201.196L304.791 200.351L304.369 201.062C295.718 196.081 284.22 193.323 271.966 193.323C259.824 193.323 248.46 196.036 239.942 200.951C239.764 201.04 239.609 201.151 239.453 201.262L239.03 201.529C238.941 201.641 238.786 201.663 238.63 201.663ZM234.293 197.371L238.608 199.861C238.786 199.75 238.941 199.639 239.142 199.528C247.904 194.48 259.579 191.677 272.011 191.677C284.442 191.677 296.162 194.457 305.036 199.506L309.261 197.059C299.142 191.522 285.955 188.497 271.944 188.497C257.711 188.497 244.346 191.655 234.293 197.371Z" fill="#03336E"/>
</svg>
